<svg xmlns="http://www.w3.org/2000/svg" width="1600" height="10" viewBox="0 0 1600 10">
<rect x="0" y="0" width="100" height="10" fill="#d93526" />
<rect x="100" y="0" width="100" height="10" fill="#d92662" />
<rect x="200" y="0" width="100" height="10" fill="#d9269d" />
<rect x="300" y="0" width="100" height="10" fill="#b645cd" />
<rect x="400" y="0" width="100" height="10" fill="#9062ca" />
<rect x="500" y="0" width="100" height="10" fill="#7569da" />
<rect x="600" y="0" width="100" height="10" fill="#3c71f7" />
<rect x="700" y="0" width="100" height="10" fill="#017fc0" />
<rect x="800" y="0" width="100" height="10" fill="#058686" />
<rect x="900" y="0" width="100" height="10" fill="#00895a" />
<rect x="1000" y="0" width="100" height="10" fill="#398712" />
<rect x="1100" y="0" width="100" height="10" fill="#628100" />
<rect x="1200" y="0" width="100" height="10" fill="#827800" />
<rect x="1300" y="0" width="100" height="10" fill="#977000" />
<rect x="1400" y="0" width="100" height="10" fill="#ad6400" />
<rect x="1500" y="0" width="100" height="10" fill="#d24317" />
</svg>
